<svg width="47" height="47" viewBox="0 0 47 47" fill="none" xmlns="http://www.w3.org/2000/svg">
<rect x="0.378235" y="0.658707" width="45.8258" height="45.8258" rx="22.9129" fill="#FFE9B5"/>
<g clip-path="url(#clip0_558_2495)">
<path d="M22.917 13.0271V34.0306" stroke="#4D5F75" stroke-width="1.90941" stroke-linecap="round" stroke-linejoin="round"/>
<path d="M27.6902 16.8477H20.5299C19.6437 16.8477 18.7938 17.1998 18.1672 17.8264C17.5405 18.4531 17.1885 19.303 17.1885 20.1892C17.1885 21.0754 17.5405 21.9253 18.1672 22.552C18.7938 23.1786 19.6437 23.5307 20.5299 23.5307H25.3035C26.1897 23.5307 27.0396 23.8827 27.6662 24.5094C28.2929 25.136 28.6449 25.9859 28.6449 26.8721C28.6449 27.7584 28.2929 28.6083 27.6662 29.2349C27.0396 29.8616 26.1897 30.2136 25.3035 30.2136H17.1885" stroke="#4D5F75" stroke-width="1.90941" stroke-linecap="round" stroke-linejoin="round"/>
</g>
<defs>
<clipPath id="clip0_558_2495">
<rect width="22.9129" height="22.9129" fill="white" transform="translate(11.4615 12.0732)"/>
</clipPath>
</defs>
</svg>
