<svg width="27" height="28" viewBox="0 0 27 28" fill="none" xmlns="http://www.w3.org/2000/svg">
<path fill-rule="evenodd" clip-rule="evenodd" d="M11.3565 21.1291C6.04951 21.1291 1.74737 16.902 1.74737 11.6794C1.74737 6.4567 6.04951 2.22123 11.3565 2.22123C16.6636 2.22123 20.9666 6.4567 20.9666 11.6794C20.9666 16.902 16.6636 21.1291 11.3565 21.1291ZM26.736 26.0227L19.7676 19.1632C21.5918 17.1805 22.7131 14.5649 22.7131 11.6794C22.7131 5.50329 17.6288 0.5 11.3565 0.5C5.08428 0.5 0 5.50329 0 11.6794C0 17.847 5.08428 22.8503 11.3565 22.8503C14.0666 22.8503 16.5522 21.9138 18.5046 20.3529L25.5008 27.2376C25.8425 27.5751 26.3951 27.5751 26.736 27.2376C27.0777 26.9086 27.0777 26.3602 26.736 26.0227Z" fill="#002D70"/>
</svg>
