<svg width="42" height="42" viewBox="0 0 42 42" fill="none" xmlns="http://www.w3.org/2000/svg">
<path d="M35.25 28.5H31.5V13.5H35.25C39 13.5 42 10.5 42 6.75C42 3 39 0 35.25 0C31.5 0 28.5 3 28.5 6.75V10.5H13.5V6.75C13.5 3 10.5 0 6.75 0C3 0 0 3 0 6.75C0 10.5 3 13.5 6.75 13.5H10.5V28.5H6.75C3 28.5 0 31.5 0 35.25C0 39 3 42 6.75 42C10.5 42 13.5 39 13.5 35.25V31.5H28.5V35.25C28.5 39 31.5 42 35.25 42C39 42 42 39 42 35.25C42 31.5 39 28.5 35.25 28.5ZM31.5 6.75C31.5 4.65 33.15 3 35.25 3C37.35 3 39 4.65 39 6.75C39 8.85 37.35 10.5 35.25 10.5H31.5V6.75ZM10.5 35.25C10.5 37.35 8.85 39 6.75 39C4.65 39 3 37.35 3 35.25C3 33.15 4.65 31.5 6.75 31.5H10.5V35.25ZM10.5 10.5H6.75C4.65 10.5 3 8.85 3 6.75C3 4.65 4.65 3 6.75 3C8.85 3 10.5 4.65 10.5 6.75V10.5ZM28.5 28.5H13.5V13.5H28.5V28.5ZM35.25 39C33.15 39 31.5 37.35 31.5 35.25V31.5H35.25C37.35 31.5 39 33.15 39 35.25C39 37.35 37.35 39 35.25 39Z" fill="#DFA621"/>
</svg>
